<?xml version="1.0" standalone="no"?><!DOCTYPE svg PUBLIC "-//W3C//DTD SVG 1.1//EN" "http://www.w3.org/Graphics/SVG/1.1/DTD/svg11.dtd"><svg t="1584098458293" class="icon" viewBox="0 0 1024 1024" version="1.1" xmlns="http://www.w3.org/2000/svg" p-id="16108" data-darkreader-inline-fill="" xmlns:xlink="http://www.w3.org/1999/xlink" width="200" height="200"><defs><style type="text/css">* {  }
</style></defs><path d="M1009.888693 309.443207L730.857343 15.922706a51.352008 51.352008 0 0 0-37.118849-15.871508H102.396826a102.396826 102.396826 0 0 0-102.396826 102.396826v358.38889a51.198413 51.198413 0 0 0 102.396826 0V153.595239a51.198413 51.198413 0 0 1 51.198413-51.198413h460.785715v204.793651a102.396826 102.396826 0 0 0 102.396826 102.396826h204.793651v51.198413a51.198413 51.198413 0 0 0 102.396826 0V344.667715a51.198413 51.198413 0 0 0-14.079564-35.275706zM921.315439 767.976193a51.198413 51.198413 0 0 0-51.198413-51.198413h-51.198412v102.396826h51.198412a51.198413 51.198413 0 0 0 51.198413-51.198413z m37.170048 125.436111l32.152603 64.305207a45.771381 45.771381 0 1 1-81.91746 40.95873L870.168225 921.571431H819.174606v51.198413a51.198413 51.198413 0 1 1-102.396826 0v-307.190477a51.198413 51.198413 0 0 1 51.198413-51.198413h94.665865c79.971921 0 152.059286 57.854207 160.251032 137.41654a153.083254 153.083254 0 0 1-64.407603 141.563612zM563.182541 742.376986a25.599206 25.599206 0 0 0-25.599206-25.599206h-51.198413a25.599206 25.599206 0 0 0-25.599206 25.599206V819.174606h102.396825v-76.79762z m102.396826-76.797619v307.190477a51.198413 51.198413 0 1 1-102.396826 0v-51.198413H460.785716v51.198413a51.198413 51.198413 0 1 1-102.396826 0v-307.190477a51.198413 51.198413 0 0 1 51.198413-51.198413h204.793651a51.198413 51.198413 0 0 1 51.198413 51.198413z m-358.38889 0v255.992064a102.396826 102.396826 0 0 1-102.396826 102.396826H51.198413a51.198413 51.198413 0 0 1 0-102.396826h102.396826a51.198413 51.198413 0 0 0 51.198412-51.198413v-204.793651a51.198413 51.198413 0 0 1 102.396826 0z" p-id="16109"></path></svg>