<?xml version="1.0" encoding="UTF-8" standalone="no"?>
<svg viewBox="0 0 448 512">
  <path
     d="m 428.84018,167.51342 v 23.14463 c 0,20.39648 -50.79778,37.0317 -113.40938,37.0317 -62.6116,0 -113.40939,-16.63522 -113.40939,-37.0317 v -23.14463 c 0,-20.39647 50.79779,-37.03171 113.40939,-37.03171 62.6116,0 113.40938,16.63524 113.40938,37.03171 z m 0,52.07567 v 52.07566 c 0,20.39648 -50.79778,37.03172 -113.40938,37.03172 -62.6116,0 -113.40939,-16.63524 -113.40939,-37.03172 v -52.07566 c 24.3653,16.78002 68.96102,24.59161 113.40939,24.59161 44.44838,0 89.04358,-7.81159 113.40938,-24.59161 z m 0,81.0067 v 52.07567 c 0,20.39647 -50.79778,37.03171 -113.40938,37.03171 -62.6116,0 -113.40939,-16.63524 -113.40939,-37.03171 v -52.07567 c 24.3653,16.78004 68.96102,24.59161 113.40939,24.59161 44.44838,0 89.04358,-7.81157 113.40938,-24.59161 z"
     id="path2"
     inkscape:connector-curvature="0"
     style="stroke-width:0.50629187" 
   />
</svg>
